<mxfile host="app.diagrams.net" modified="2021-04-26T18:33:22.593Z" agent="5.0 (Windows NT 10.0; Win64; x64) AppleWebKit/537.36 (KHTML, like Gecko) Chrome/90.0.4430.85 Safari/537.36" etag="1F6OGCxtHx3baRRgya12" version="14.6.6" type="github">
  <diagram id="Fs4MIxVmF5xMM4W98wgM" name="Page-1">
    <mxGraphModel dx="1673" dy="896" grid="1" gridSize="10" guides="1" tooltips="1" connect="1" arrows="1" fold="1" page="1" pageScale="1" pageWidth="1169" pageHeight="827" math="0" shadow="0">
      <root>
        <mxCell id="0" />
        <mxCell id="1" parent="0" />
        <mxCell id="2cDkV1y1r-W87eGvVOOi-1" value="&lt;font face=&quot;Verdana&quot; style=&quot;font-size: 32px&quot;&gt;webGPU Computing&lt;/font&gt;" style="text;html=1;strokeColor=none;fillColor=none;align=center;verticalAlign=middle;whiteSpace=wrap;rounded=0;" vertex="1" parent="1">
          <mxGeometry x="350" y="30" width="440" height="20" as="geometry" />
        </mxCell>
        <mxCell id="2cDkV1y1r-W87eGvVOOi-2" value="" style="shape=table;html=1;whiteSpace=wrap;startSize=0;container=1;collapsible=0;childLayout=tableLayout;" vertex="1" parent="1">
          <mxGeometry x="454" y="140" width="100" height="40" as="geometry" />
        </mxCell>
        <mxCell id="2cDkV1y1r-W87eGvVOOi-3" value="" style="shape=partialRectangle;html=1;whiteSpace=wrap;collapsible=0;dropTarget=0;pointerEvents=0;fillColor=none;top=0;left=0;bottom=0;right=0;points=[[0,0.5],[1,0.5]];portConstraint=eastwest;" vertex="1" parent="2cDkV1y1r-W87eGvVOOi-2">
          <mxGeometry width="100" height="40" as="geometry" />
        </mxCell>
        <mxCell id="2cDkV1y1r-W87eGvVOOi-4" value="" style="shape=partialRectangle;html=1;whiteSpace=wrap;connectable=0;fillColor=none;top=0;left=0;bottom=0;right=0;overflow=hidden;" vertex="1" parent="2cDkV1y1r-W87eGvVOOi-3">
          <mxGeometry width="20" height="40" as="geometry" />
        </mxCell>
        <mxCell id="2cDkV1y1r-W87eGvVOOi-5" value="" style="shape=partialRectangle;html=1;whiteSpace=wrap;connectable=0;fillColor=none;top=0;left=0;bottom=0;right=0;overflow=hidden;" vertex="1" parent="2cDkV1y1r-W87eGvVOOi-3">
          <mxGeometry x="20" width="20" height="40" as="geometry" />
        </mxCell>
        <mxCell id="2cDkV1y1r-W87eGvVOOi-6" value="" style="shape=partialRectangle;html=1;whiteSpace=wrap;connectable=0;fillColor=none;top=0;left=0;bottom=0;right=0;overflow=hidden;" vertex="1" parent="2cDkV1y1r-W87eGvVOOi-3">
          <mxGeometry x="40" width="20" height="40" as="geometry" />
        </mxCell>
        <mxCell id="2cDkV1y1r-W87eGvVOOi-15" style="shape=partialRectangle;html=1;whiteSpace=wrap;connectable=0;fillColor=none;top=0;left=0;bottom=0;right=0;overflow=hidden;" vertex="1" parent="2cDkV1y1r-W87eGvVOOi-3">
          <mxGeometry x="60" width="20" height="40" as="geometry" />
        </mxCell>
        <mxCell id="2cDkV1y1r-W87eGvVOOi-16" style="shape=partialRectangle;html=1;whiteSpace=wrap;connectable=0;fillColor=none;top=0;left=0;bottom=0;right=0;overflow=hidden;" vertex="1" parent="2cDkV1y1r-W87eGvVOOi-3">
          <mxGeometry x="80" width="20" height="40" as="geometry" />
        </mxCell>
        <mxCell id="2cDkV1y1r-W87eGvVOOi-17" value="" style="shape=table;html=1;whiteSpace=wrap;startSize=0;container=1;collapsible=0;childLayout=tableLayout;" vertex="1" parent="1">
          <mxGeometry x="604" y="140" width="140" height="40" as="geometry" />
        </mxCell>
        <mxCell id="2cDkV1y1r-W87eGvVOOi-18" value="" style="shape=partialRectangle;html=1;whiteSpace=wrap;collapsible=0;dropTarget=0;pointerEvents=0;fillColor=none;top=0;left=0;bottom=0;right=0;points=[[0,0.5],[1,0.5]];portConstraint=eastwest;" vertex="1" parent="2cDkV1y1r-W87eGvVOOi-17">
          <mxGeometry width="140" height="40" as="geometry" />
        </mxCell>
        <mxCell id="2cDkV1y1r-W87eGvVOOi-19" value="" style="shape=partialRectangle;html=1;whiteSpace=wrap;connectable=0;fillColor=none;top=0;left=0;bottom=0;right=0;overflow=hidden;" vertex="1" parent="2cDkV1y1r-W87eGvVOOi-18">
          <mxGeometry width="20" height="40" as="geometry" />
        </mxCell>
        <mxCell id="2cDkV1y1r-W87eGvVOOi-20" value="" style="shape=partialRectangle;html=1;whiteSpace=wrap;connectable=0;fillColor=none;top=0;left=0;bottom=0;right=0;overflow=hidden;" vertex="1" parent="2cDkV1y1r-W87eGvVOOi-18">
          <mxGeometry x="20" width="20" height="40" as="geometry" />
        </mxCell>
        <mxCell id="2cDkV1y1r-W87eGvVOOi-21" value="" style="shape=partialRectangle;html=1;whiteSpace=wrap;connectable=0;fillColor=none;top=0;left=0;bottom=0;right=0;overflow=hidden;" vertex="1" parent="2cDkV1y1r-W87eGvVOOi-18">
          <mxGeometry x="40" width="20" height="40" as="geometry" />
        </mxCell>
        <mxCell id="2cDkV1y1r-W87eGvVOOi-22" style="shape=partialRectangle;html=1;whiteSpace=wrap;connectable=0;fillColor=none;top=0;left=0;bottom=0;right=0;overflow=hidden;" vertex="1" parent="2cDkV1y1r-W87eGvVOOi-18">
          <mxGeometry x="60" width="20" height="40" as="geometry" />
        </mxCell>
        <mxCell id="2cDkV1y1r-W87eGvVOOi-23" style="shape=partialRectangle;html=1;whiteSpace=wrap;connectable=0;fillColor=none;top=0;left=0;bottom=0;right=0;overflow=hidden;" vertex="1" parent="2cDkV1y1r-W87eGvVOOi-18">
          <mxGeometry x="80" width="20" height="40" as="geometry" />
        </mxCell>
        <mxCell id="2cDkV1y1r-W87eGvVOOi-25" style="shape=partialRectangle;html=1;whiteSpace=wrap;connectable=0;fillColor=none;top=0;left=0;bottom=0;right=0;overflow=hidden;" vertex="1" parent="2cDkV1y1r-W87eGvVOOi-18">
          <mxGeometry x="100" width="20" height="40" as="geometry" />
        </mxCell>
        <mxCell id="2cDkV1y1r-W87eGvVOOi-24" style="shape=partialRectangle;html=1;whiteSpace=wrap;connectable=0;fillColor=none;top=0;left=0;bottom=0;right=0;overflow=hidden;" vertex="1" parent="2cDkV1y1r-W87eGvVOOi-18">
          <mxGeometry x="120" width="20" height="40" as="geometry" />
        </mxCell>
        <mxCell id="2cDkV1y1r-W87eGvVOOi-27" value="" style="shape=table;html=1;whiteSpace=wrap;startSize=0;container=1;collapsible=0;childLayout=tableLayout;" vertex="1" parent="1">
          <mxGeometry x="789" y="140" width="60" height="40" as="geometry" />
        </mxCell>
        <mxCell id="2cDkV1y1r-W87eGvVOOi-28" value="" style="shape=partialRectangle;html=1;whiteSpace=wrap;collapsible=0;dropTarget=0;pointerEvents=0;fillColor=none;top=0;left=0;bottom=0;right=0;points=[[0,0.5],[1,0.5]];portConstraint=eastwest;" vertex="1" parent="2cDkV1y1r-W87eGvVOOi-27">
          <mxGeometry width="60" height="40" as="geometry" />
        </mxCell>
        <mxCell id="2cDkV1y1r-W87eGvVOOi-29" value="" style="shape=partialRectangle;html=1;whiteSpace=wrap;connectable=0;fillColor=none;top=0;left=0;bottom=0;right=0;overflow=hidden;" vertex="1" parent="2cDkV1y1r-W87eGvVOOi-28">
          <mxGeometry width="20" height="40" as="geometry" />
        </mxCell>
        <mxCell id="2cDkV1y1r-W87eGvVOOi-30" value="" style="shape=partialRectangle;html=1;whiteSpace=wrap;connectable=0;fillColor=none;top=0;left=0;bottom=0;right=0;overflow=hidden;" vertex="1" parent="2cDkV1y1r-W87eGvVOOi-28">
          <mxGeometry x="20" width="20" height="40" as="geometry" />
        </mxCell>
        <mxCell id="2cDkV1y1r-W87eGvVOOi-31" value="" style="shape=partialRectangle;html=1;whiteSpace=wrap;connectable=0;fillColor=none;top=0;left=0;bottom=0;right=0;overflow=hidden;" vertex="1" parent="2cDkV1y1r-W87eGvVOOi-28">
          <mxGeometry x="40" width="20" height="40" as="geometry" />
        </mxCell>
        <mxCell id="2cDkV1y1r-W87eGvVOOi-36" value="" style="shape=table;html=1;whiteSpace=wrap;startSize=0;container=1;collapsible=0;childLayout=tableLayout;" vertex="1" parent="1">
          <mxGeometry x="884" y="140" width="220" height="40" as="geometry" />
        </mxCell>
        <mxCell id="2cDkV1y1r-W87eGvVOOi-37" value="" style="shape=partialRectangle;html=1;whiteSpace=wrap;collapsible=0;dropTarget=0;pointerEvents=0;fillColor=none;top=0;left=0;bottom=0;right=0;points=[[0,0.5],[1,0.5]];portConstraint=eastwest;" vertex="1" parent="2cDkV1y1r-W87eGvVOOi-36">
          <mxGeometry width="220" height="40" as="geometry" />
        </mxCell>
        <mxCell id="2cDkV1y1r-W87eGvVOOi-38" value="" style="shape=partialRectangle;html=1;whiteSpace=wrap;connectable=0;fillColor=none;top=0;left=0;bottom=0;right=0;overflow=hidden;" vertex="1" parent="2cDkV1y1r-W87eGvVOOi-37">
          <mxGeometry width="20" height="40" as="geometry" />
        </mxCell>
        <mxCell id="2cDkV1y1r-W87eGvVOOi-39" value="" style="shape=partialRectangle;html=1;whiteSpace=wrap;connectable=0;fillColor=none;top=0;left=0;bottom=0;right=0;overflow=hidden;" vertex="1" parent="2cDkV1y1r-W87eGvVOOi-37">
          <mxGeometry x="20" width="20" height="40" as="geometry" />
        </mxCell>
        <mxCell id="2cDkV1y1r-W87eGvVOOi-40" value="" style="shape=partialRectangle;html=1;whiteSpace=wrap;connectable=0;fillColor=none;top=0;left=0;bottom=0;right=0;overflow=hidden;" vertex="1" parent="2cDkV1y1r-W87eGvVOOi-37">
          <mxGeometry x="40" width="20" height="40" as="geometry" />
        </mxCell>
        <mxCell id="2cDkV1y1r-W87eGvVOOi-41" style="shape=partialRectangle;html=1;whiteSpace=wrap;connectable=0;fillColor=none;top=0;left=0;bottom=0;right=0;overflow=hidden;" vertex="1" parent="2cDkV1y1r-W87eGvVOOi-37">
          <mxGeometry x="60" width="20" height="40" as="geometry" />
        </mxCell>
        <mxCell id="2cDkV1y1r-W87eGvVOOi-42" style="shape=partialRectangle;html=1;whiteSpace=wrap;connectable=0;fillColor=none;top=0;left=0;bottom=0;right=0;overflow=hidden;" vertex="1" parent="2cDkV1y1r-W87eGvVOOi-37">
          <mxGeometry x="80" width="20" height="40" as="geometry" />
        </mxCell>
        <mxCell id="2cDkV1y1r-W87eGvVOOi-43" style="shape=partialRectangle;html=1;whiteSpace=wrap;connectable=0;fillColor=none;top=0;left=0;bottom=0;right=0;overflow=hidden;" vertex="1" parent="2cDkV1y1r-W87eGvVOOi-37">
          <mxGeometry x="100" width="20" height="40" as="geometry" />
        </mxCell>
        <mxCell id="2cDkV1y1r-W87eGvVOOi-44" style="shape=partialRectangle;html=1;whiteSpace=wrap;connectable=0;fillColor=none;top=0;left=0;bottom=0;right=0;overflow=hidden;" vertex="1" parent="2cDkV1y1r-W87eGvVOOi-37">
          <mxGeometry x="120" width="20" height="40" as="geometry" />
        </mxCell>
        <mxCell id="2cDkV1y1r-W87eGvVOOi-45" style="shape=partialRectangle;html=1;whiteSpace=wrap;connectable=0;fillColor=none;top=0;left=0;bottom=0;right=0;overflow=hidden;" vertex="1" parent="2cDkV1y1r-W87eGvVOOi-37">
          <mxGeometry x="140" width="20" height="40" as="geometry" />
        </mxCell>
        <mxCell id="2cDkV1y1r-W87eGvVOOi-46" style="shape=partialRectangle;html=1;whiteSpace=wrap;connectable=0;fillColor=none;top=0;left=0;bottom=0;right=0;overflow=hidden;" vertex="1" parent="2cDkV1y1r-W87eGvVOOi-37">
          <mxGeometry x="160" width="20" height="40" as="geometry" />
        </mxCell>
        <mxCell id="2cDkV1y1r-W87eGvVOOi-47" style="shape=partialRectangle;html=1;whiteSpace=wrap;connectable=0;fillColor=none;top=0;left=0;bottom=0;right=0;overflow=hidden;" vertex="1" parent="2cDkV1y1r-W87eGvVOOi-37">
          <mxGeometry x="180" width="20" height="40" as="geometry" />
        </mxCell>
        <mxCell id="2cDkV1y1r-W87eGvVOOi-48" style="shape=partialRectangle;html=1;whiteSpace=wrap;connectable=0;fillColor=none;top=0;left=0;bottom=0;right=0;overflow=hidden;" vertex="1" parent="2cDkV1y1r-W87eGvVOOi-37">
          <mxGeometry x="200" width="20" height="40" as="geometry" />
        </mxCell>
        <mxCell id="2cDkV1y1r-W87eGvVOOi-49" value="Buffers" style="text;html=1;strokeColor=none;fillColor=none;align=center;verticalAlign=middle;whiteSpace=wrap;rounded=0;fontSize=35;fontFamily=Verdana;fontColor=#CC0000;" vertex="1" parent="1">
          <mxGeometry x="179" y="140" width="40" height="20" as="geometry" />
        </mxCell>
        <mxCell id="2cDkV1y1r-W87eGvVOOi-51" value="&lt;font style=&quot;font-size: 35px&quot;&gt;Binding Groups&lt;br&gt;&amp;amp; Layouts&lt;/font&gt;" style="text;html=1;strokeColor=none;fillColor=none;align=center;verticalAlign=middle;whiteSpace=wrap;rounded=0;fontSize=35;fontFamily=Verdana;fontColor=#CC0000;" vertex="1" parent="1">
          <mxGeometry x="34" y="260" width="330" height="20" as="geometry" />
        </mxCell>
        <mxCell id="2cDkV1y1r-W87eGvVOOi-52" value="" style="rounded=1;whiteSpace=wrap;html=1;fontFamily=Verdana;fontSize=35;fontColor=#CC0000;glass=0;" vertex="1" parent="1">
          <mxGeometry x="404" y="230" width="730" height="110" as="geometry" />
        </mxCell>
        <mxCell id="2cDkV1y1r-W87eGvVOOi-53" value="" style="ellipse;whiteSpace=wrap;html=1;rounded=1;glass=0;fontFamily=Verdana;fontSize=35;fontColor=#CC0000;" vertex="1" parent="1">
          <mxGeometry x="474" y="260" width="50" height="46" as="geometry" />
        </mxCell>
        <mxCell id="2cDkV1y1r-W87eGvVOOi-54" value="" style="ellipse;whiteSpace=wrap;html=1;rounded=1;glass=0;fontFamily=Verdana;fontSize=35;fontColor=#CC0000;" vertex="1" parent="1">
          <mxGeometry x="654" y="262" width="50" height="46" as="geometry" />
        </mxCell>
        <mxCell id="2cDkV1y1r-W87eGvVOOi-55" value="" style="ellipse;whiteSpace=wrap;html=1;rounded=1;glass=0;fontFamily=Verdana;fontSize=35;fontColor=#CC0000;" vertex="1" parent="1">
          <mxGeometry x="799" y="260" width="50" height="46" as="geometry" />
        </mxCell>
        <mxCell id="2cDkV1y1r-W87eGvVOOi-56" value="" style="ellipse;whiteSpace=wrap;html=1;rounded=1;glass=0;fontFamily=Verdana;fontSize=35;fontColor=#CC0000;" vertex="1" parent="1">
          <mxGeometry x="969" y="262" width="50" height="46" as="geometry" />
        </mxCell>
        <mxCell id="2cDkV1y1r-W87eGvVOOi-57" value="" style="endArrow=classic;startArrow=classic;html=1;fontFamily=Verdana;fontSize=35;fontColor=#CC0000;entryX=0.07;entryY=0.982;entryDx=0;entryDy=0;entryPerimeter=0;exitX=0.5;exitY=0;exitDx=0;exitDy=0;" edge="1" parent="1" source="2cDkV1y1r-W87eGvVOOi-53" target="2cDkV1y1r-W87eGvVOOi-3">
          <mxGeometry width="50" height="50" relative="1" as="geometry">
            <mxPoint x="384" y="210" as="sourcePoint" />
            <mxPoint x="434" y="160" as="targetPoint" />
          </mxGeometry>
        </mxCell>
        <mxCell id="2cDkV1y1r-W87eGvVOOi-58" value="" style="endArrow=classic;startArrow=classic;html=1;fontFamily=Verdana;fontSize=35;fontColor=#CC0000;entryX=0.079;entryY=0.982;entryDx=0;entryDy=0;entryPerimeter=0;exitX=0.5;exitY=0;exitDx=0;exitDy=0;" edge="1" parent="1" source="2cDkV1y1r-W87eGvVOOi-54" target="2cDkV1y1r-W87eGvVOOi-18">
          <mxGeometry width="50" height="50" relative="1" as="geometry">
            <mxPoint x="509" y="270" as="sourcePoint" />
            <mxPoint x="471" y="189.2800000000002" as="targetPoint" />
          </mxGeometry>
        </mxCell>
        <mxCell id="2cDkV1y1r-W87eGvVOOi-59" value="" style="endArrow=classic;startArrow=classic;html=1;fontFamily=Verdana;fontSize=35;fontColor=#CC0000;entryX=0.141;entryY=0.982;entryDx=0;entryDy=0;entryPerimeter=0;exitX=0.5;exitY=0;exitDx=0;exitDy=0;" edge="1" parent="1" source="2cDkV1y1r-W87eGvVOOi-55" target="2cDkV1y1r-W87eGvVOOi-28">
          <mxGeometry width="50" height="50" relative="1" as="geometry">
            <mxPoint x="689" y="272" as="sourcePoint" />
            <mxPoint x="625.06" y="189.2800000000002" as="targetPoint" />
          </mxGeometry>
        </mxCell>
        <mxCell id="2cDkV1y1r-W87eGvVOOi-60" value="" style="endArrow=classic;startArrow=classic;html=1;fontFamily=Verdana;fontSize=35;fontColor=#CC0000;entryX=0.045;entryY=1.041;entryDx=0;entryDy=0;entryPerimeter=0;exitX=0.5;exitY=0;exitDx=0;exitDy=0;" edge="1" parent="1" source="2cDkV1y1r-W87eGvVOOi-56" target="2cDkV1y1r-W87eGvVOOi-37">
          <mxGeometry width="50" height="50" relative="1" as="geometry">
            <mxPoint x="833.9999999999995" y="270" as="sourcePoint" />
            <mxPoint x="807.4599999999996" y="189.2800000000002" as="targetPoint" />
          </mxGeometry>
        </mxCell>
        <mxCell id="2cDkV1y1r-W87eGvVOOi-64" value="" style="shape=table;html=1;whiteSpace=wrap;startSize=0;container=1;collapsible=0;childLayout=tableLayout;rounded=0;glass=0;fontFamily=Verdana;fontSize=35;fontColor=#CC0000;" vertex="1" parent="1">
          <mxGeometry x="544" y="410" width="360" height="240" as="geometry" />
        </mxCell>
        <mxCell id="2cDkV1y1r-W87eGvVOOi-100" style="shape=partialRectangle;html=1;whiteSpace=wrap;collapsible=0;dropTarget=0;pointerEvents=0;fillColor=none;top=0;left=0;bottom=0;right=0;points=[[0,0.5],[1,0.5]];portConstraint=eastwest;" vertex="1" parent="2cDkV1y1r-W87eGvVOOi-64">
          <mxGeometry width="360" height="40" as="geometry" />
        </mxCell>
        <mxCell id="2cDkV1y1r-W87eGvVOOi-101" style="shape=partialRectangle;html=1;whiteSpace=wrap;connectable=0;fillColor=none;top=0;left=0;bottom=0;right=0;overflow=hidden;" vertex="1" parent="2cDkV1y1r-W87eGvVOOi-100">
          <mxGeometry width="60" height="40" as="geometry" />
        </mxCell>
        <mxCell id="2cDkV1y1r-W87eGvVOOi-102" style="shape=partialRectangle;html=1;whiteSpace=wrap;connectable=0;fillColor=none;top=0;left=0;bottom=0;right=0;overflow=hidden;" vertex="1" parent="2cDkV1y1r-W87eGvVOOi-100">
          <mxGeometry x="60" width="60" height="40" as="geometry" />
        </mxCell>
        <mxCell id="2cDkV1y1r-W87eGvVOOi-103" style="shape=partialRectangle;html=1;whiteSpace=wrap;connectable=0;fillColor=none;top=0;left=0;bottom=0;right=0;overflow=hidden;" vertex="1" parent="2cDkV1y1r-W87eGvVOOi-100">
          <mxGeometry x="120" width="60" height="40" as="geometry" />
        </mxCell>
        <mxCell id="2cDkV1y1r-W87eGvVOOi-104" style="shape=partialRectangle;html=1;whiteSpace=wrap;connectable=0;fillColor=none;top=0;left=0;bottom=0;right=0;overflow=hidden;" vertex="1" parent="2cDkV1y1r-W87eGvVOOi-100">
          <mxGeometry x="180" width="60" height="40" as="geometry" />
        </mxCell>
        <mxCell id="2cDkV1y1r-W87eGvVOOi-105" style="shape=partialRectangle;html=1;whiteSpace=wrap;connectable=0;fillColor=none;top=0;left=0;bottom=0;right=0;overflow=hidden;" vertex="1" parent="2cDkV1y1r-W87eGvVOOi-100">
          <mxGeometry x="240" width="60" height="40" as="geometry" />
        </mxCell>
        <mxCell id="2cDkV1y1r-W87eGvVOOi-106" style="shape=partialRectangle;html=1;whiteSpace=wrap;connectable=0;fillColor=none;top=0;left=0;bottom=0;right=0;overflow=hidden;" vertex="1" parent="2cDkV1y1r-W87eGvVOOi-100">
          <mxGeometry x="300" width="60" height="40" as="geometry" />
        </mxCell>
        <mxCell id="2cDkV1y1r-W87eGvVOOi-93" style="shape=partialRectangle;html=1;whiteSpace=wrap;collapsible=0;dropTarget=0;pointerEvents=0;fillColor=none;top=0;left=0;bottom=0;right=0;points=[[0,0.5],[1,0.5]];portConstraint=eastwest;" vertex="1" parent="2cDkV1y1r-W87eGvVOOi-64">
          <mxGeometry y="40" width="360" height="40" as="geometry" />
        </mxCell>
        <mxCell id="2cDkV1y1r-W87eGvVOOi-94" style="shape=partialRectangle;html=1;whiteSpace=wrap;connectable=0;fillColor=none;top=0;left=0;bottom=0;right=0;overflow=hidden;" vertex="1" parent="2cDkV1y1r-W87eGvVOOi-93">
          <mxGeometry width="60" height="40" as="geometry" />
        </mxCell>
        <mxCell id="2cDkV1y1r-W87eGvVOOi-95" style="shape=partialRectangle;html=1;whiteSpace=wrap;connectable=0;fillColor=none;top=0;left=0;bottom=0;right=0;overflow=hidden;" vertex="1" parent="2cDkV1y1r-W87eGvVOOi-93">
          <mxGeometry x="60" width="60" height="40" as="geometry" />
        </mxCell>
        <mxCell id="2cDkV1y1r-W87eGvVOOi-96" style="shape=partialRectangle;html=1;whiteSpace=wrap;connectable=0;fillColor=none;top=0;left=0;bottom=0;right=0;overflow=hidden;" vertex="1" parent="2cDkV1y1r-W87eGvVOOi-93">
          <mxGeometry x="120" width="60" height="40" as="geometry" />
        </mxCell>
        <mxCell id="2cDkV1y1r-W87eGvVOOi-97" style="shape=partialRectangle;html=1;whiteSpace=wrap;connectable=0;fillColor=none;top=0;left=0;bottom=0;right=0;overflow=hidden;" vertex="1" parent="2cDkV1y1r-W87eGvVOOi-93">
          <mxGeometry x="180" width="60" height="40" as="geometry" />
        </mxCell>
        <mxCell id="2cDkV1y1r-W87eGvVOOi-98" style="shape=partialRectangle;html=1;whiteSpace=wrap;connectable=0;fillColor=none;top=0;left=0;bottom=0;right=0;overflow=hidden;" vertex="1" parent="2cDkV1y1r-W87eGvVOOi-93">
          <mxGeometry x="240" width="60" height="40" as="geometry" />
        </mxCell>
        <mxCell id="2cDkV1y1r-W87eGvVOOi-99" style="shape=partialRectangle;html=1;whiteSpace=wrap;connectable=0;fillColor=none;top=0;left=0;bottom=0;right=0;overflow=hidden;" vertex="1" parent="2cDkV1y1r-W87eGvVOOi-93">
          <mxGeometry x="300" width="60" height="40" as="geometry" />
        </mxCell>
        <mxCell id="2cDkV1y1r-W87eGvVOOi-86" style="shape=partialRectangle;html=1;whiteSpace=wrap;collapsible=0;dropTarget=0;pointerEvents=0;fillColor=none;top=0;left=0;bottom=0;right=0;points=[[0,0.5],[1,0.5]];portConstraint=eastwest;" vertex="1" parent="2cDkV1y1r-W87eGvVOOi-64">
          <mxGeometry y="80" width="360" height="40" as="geometry" />
        </mxCell>
        <mxCell id="2cDkV1y1r-W87eGvVOOi-87" style="shape=partialRectangle;html=1;whiteSpace=wrap;connectable=0;fillColor=none;top=0;left=0;bottom=0;right=0;overflow=hidden;" vertex="1" parent="2cDkV1y1r-W87eGvVOOi-86">
          <mxGeometry width="60" height="40" as="geometry" />
        </mxCell>
        <mxCell id="2cDkV1y1r-W87eGvVOOi-88" style="shape=partialRectangle;html=1;whiteSpace=wrap;connectable=0;fillColor=none;top=0;left=0;bottom=0;right=0;overflow=hidden;" vertex="1" parent="2cDkV1y1r-W87eGvVOOi-86">
          <mxGeometry x="60" width="60" height="40" as="geometry" />
        </mxCell>
        <mxCell id="2cDkV1y1r-W87eGvVOOi-89" style="shape=partialRectangle;html=1;whiteSpace=wrap;connectable=0;fillColor=none;top=0;left=0;bottom=0;right=0;overflow=hidden;" vertex="1" parent="2cDkV1y1r-W87eGvVOOi-86">
          <mxGeometry x="120" width="60" height="40" as="geometry" />
        </mxCell>
        <mxCell id="2cDkV1y1r-W87eGvVOOi-90" style="shape=partialRectangle;html=1;whiteSpace=wrap;connectable=0;fillColor=none;top=0;left=0;bottom=0;right=0;overflow=hidden;" vertex="1" parent="2cDkV1y1r-W87eGvVOOi-86">
          <mxGeometry x="180" width="60" height="40" as="geometry" />
        </mxCell>
        <mxCell id="2cDkV1y1r-W87eGvVOOi-91" style="shape=partialRectangle;html=1;whiteSpace=wrap;connectable=0;fillColor=none;top=0;left=0;bottom=0;right=0;overflow=hidden;" vertex="1" parent="2cDkV1y1r-W87eGvVOOi-86">
          <mxGeometry x="240" width="60" height="40" as="geometry" />
        </mxCell>
        <mxCell id="2cDkV1y1r-W87eGvVOOi-92" style="shape=partialRectangle;html=1;whiteSpace=wrap;connectable=0;fillColor=none;top=0;left=0;bottom=0;right=0;overflow=hidden;" vertex="1" parent="2cDkV1y1r-W87eGvVOOi-86">
          <mxGeometry x="300" width="60" height="40" as="geometry" />
        </mxCell>
        <mxCell id="2cDkV1y1r-W87eGvVOOi-65" value="" style="shape=partialRectangle;html=1;whiteSpace=wrap;collapsible=0;dropTarget=0;pointerEvents=0;fillColor=none;top=0;left=0;bottom=0;right=0;points=[[0,0.5],[1,0.5]];portConstraint=eastwest;" vertex="1" parent="2cDkV1y1r-W87eGvVOOi-64">
          <mxGeometry y="120" width="360" height="40" as="geometry" />
        </mxCell>
        <mxCell id="2cDkV1y1r-W87eGvVOOi-66" value="" style="shape=partialRectangle;html=1;whiteSpace=wrap;connectable=0;fillColor=none;top=0;left=0;bottom=0;right=0;overflow=hidden;" vertex="1" parent="2cDkV1y1r-W87eGvVOOi-65">
          <mxGeometry width="60" height="40" as="geometry" />
        </mxCell>
        <mxCell id="2cDkV1y1r-W87eGvVOOi-67" value="" style="shape=partialRectangle;html=1;whiteSpace=wrap;connectable=0;fillColor=none;top=0;left=0;bottom=0;right=0;overflow=hidden;" vertex="1" parent="2cDkV1y1r-W87eGvVOOi-65">
          <mxGeometry x="60" width="60" height="40" as="geometry" />
        </mxCell>
        <mxCell id="2cDkV1y1r-W87eGvVOOi-68" value="" style="shape=partialRectangle;html=1;whiteSpace=wrap;connectable=0;fillColor=none;top=0;left=0;bottom=0;right=0;overflow=hidden;" vertex="1" parent="2cDkV1y1r-W87eGvVOOi-65">
          <mxGeometry x="120" width="60" height="40" as="geometry" />
        </mxCell>
        <mxCell id="2cDkV1y1r-W87eGvVOOi-77" style="shape=partialRectangle;html=1;whiteSpace=wrap;connectable=0;fillColor=none;top=0;left=0;bottom=0;right=0;overflow=hidden;" vertex="1" parent="2cDkV1y1r-W87eGvVOOi-65">
          <mxGeometry x="180" width="60" height="40" as="geometry" />
        </mxCell>
        <mxCell id="2cDkV1y1r-W87eGvVOOi-80" style="shape=partialRectangle;html=1;whiteSpace=wrap;connectable=0;fillColor=none;top=0;left=0;bottom=0;right=0;overflow=hidden;" vertex="1" parent="2cDkV1y1r-W87eGvVOOi-65">
          <mxGeometry x="240" width="60" height="40" as="geometry" />
        </mxCell>
        <mxCell id="2cDkV1y1r-W87eGvVOOi-83" style="shape=partialRectangle;html=1;whiteSpace=wrap;connectable=0;fillColor=none;top=0;left=0;bottom=0;right=0;overflow=hidden;" vertex="1" parent="2cDkV1y1r-W87eGvVOOi-65">
          <mxGeometry x="300" width="60" height="40" as="geometry" />
        </mxCell>
        <mxCell id="2cDkV1y1r-W87eGvVOOi-69" value="" style="shape=partialRectangle;html=1;whiteSpace=wrap;collapsible=0;dropTarget=0;pointerEvents=0;fillColor=none;top=0;left=0;bottom=0;right=0;points=[[0,0.5],[1,0.5]];portConstraint=eastwest;" vertex="1" parent="2cDkV1y1r-W87eGvVOOi-64">
          <mxGeometry y="160" width="360" height="40" as="geometry" />
        </mxCell>
        <mxCell id="2cDkV1y1r-W87eGvVOOi-70" value="" style="shape=partialRectangle;html=1;whiteSpace=wrap;connectable=0;fillColor=none;top=0;left=0;bottom=0;right=0;overflow=hidden;" vertex="1" parent="2cDkV1y1r-W87eGvVOOi-69">
          <mxGeometry width="60" height="40" as="geometry" />
        </mxCell>
        <mxCell id="2cDkV1y1r-W87eGvVOOi-71" value="" style="shape=partialRectangle;html=1;whiteSpace=wrap;connectable=0;fillColor=none;top=0;left=0;bottom=0;right=0;overflow=hidden;" vertex="1" parent="2cDkV1y1r-W87eGvVOOi-69">
          <mxGeometry x="60" width="60" height="40" as="geometry" />
        </mxCell>
        <mxCell id="2cDkV1y1r-W87eGvVOOi-72" value="" style="shape=partialRectangle;html=1;whiteSpace=wrap;connectable=0;fillColor=none;top=0;left=0;bottom=0;right=0;overflow=hidden;" vertex="1" parent="2cDkV1y1r-W87eGvVOOi-69">
          <mxGeometry x="120" width="60" height="40" as="geometry" />
        </mxCell>
        <mxCell id="2cDkV1y1r-W87eGvVOOi-78" style="shape=partialRectangle;html=1;whiteSpace=wrap;connectable=0;fillColor=none;top=0;left=0;bottom=0;right=0;overflow=hidden;" vertex="1" parent="2cDkV1y1r-W87eGvVOOi-69">
          <mxGeometry x="180" width="60" height="40" as="geometry" />
        </mxCell>
        <mxCell id="2cDkV1y1r-W87eGvVOOi-81" style="shape=partialRectangle;html=1;whiteSpace=wrap;connectable=0;fillColor=none;top=0;left=0;bottom=0;right=0;overflow=hidden;" vertex="1" parent="2cDkV1y1r-W87eGvVOOi-69">
          <mxGeometry x="240" width="60" height="40" as="geometry" />
        </mxCell>
        <mxCell id="2cDkV1y1r-W87eGvVOOi-84" style="shape=partialRectangle;html=1;whiteSpace=wrap;connectable=0;fillColor=none;top=0;left=0;bottom=0;right=0;overflow=hidden;" vertex="1" parent="2cDkV1y1r-W87eGvVOOi-69">
          <mxGeometry x="300" width="60" height="40" as="geometry" />
        </mxCell>
        <mxCell id="2cDkV1y1r-W87eGvVOOi-73" value="" style="shape=partialRectangle;html=1;whiteSpace=wrap;collapsible=0;dropTarget=0;pointerEvents=0;fillColor=none;top=0;left=0;bottom=0;right=0;points=[[0,0.5],[1,0.5]];portConstraint=eastwest;" vertex="1" parent="2cDkV1y1r-W87eGvVOOi-64">
          <mxGeometry y="200" width="360" height="40" as="geometry" />
        </mxCell>
        <mxCell id="2cDkV1y1r-W87eGvVOOi-74" value="" style="shape=partialRectangle;html=1;whiteSpace=wrap;connectable=0;fillColor=none;top=0;left=0;bottom=0;right=0;overflow=hidden;" vertex="1" parent="2cDkV1y1r-W87eGvVOOi-73">
          <mxGeometry width="60" height="40" as="geometry" />
        </mxCell>
        <mxCell id="2cDkV1y1r-W87eGvVOOi-75" value="" style="shape=partialRectangle;html=1;whiteSpace=wrap;connectable=0;fillColor=none;top=0;left=0;bottom=0;right=0;overflow=hidden;" vertex="1" parent="2cDkV1y1r-W87eGvVOOi-73">
          <mxGeometry x="60" width="60" height="40" as="geometry" />
        </mxCell>
        <mxCell id="2cDkV1y1r-W87eGvVOOi-76" value="" style="shape=partialRectangle;html=1;whiteSpace=wrap;connectable=0;fillColor=none;top=0;left=0;bottom=0;right=0;overflow=hidden;" vertex="1" parent="2cDkV1y1r-W87eGvVOOi-73">
          <mxGeometry x="120" width="60" height="40" as="geometry" />
        </mxCell>
        <mxCell id="2cDkV1y1r-W87eGvVOOi-79" style="shape=partialRectangle;html=1;whiteSpace=wrap;connectable=0;fillColor=none;top=0;left=0;bottom=0;right=0;overflow=hidden;" vertex="1" parent="2cDkV1y1r-W87eGvVOOi-73">
          <mxGeometry x="180" width="60" height="40" as="geometry" />
        </mxCell>
        <mxCell id="2cDkV1y1r-W87eGvVOOi-82" style="shape=partialRectangle;html=1;whiteSpace=wrap;connectable=0;fillColor=none;top=0;left=0;bottom=0;right=0;overflow=hidden;" vertex="1" parent="2cDkV1y1r-W87eGvVOOi-73">
          <mxGeometry x="240" width="60" height="40" as="geometry" />
        </mxCell>
        <mxCell id="2cDkV1y1r-W87eGvVOOi-85" style="shape=partialRectangle;html=1;whiteSpace=wrap;connectable=0;fillColor=none;top=0;left=0;bottom=0;right=0;overflow=hidden;" vertex="1" parent="2cDkV1y1r-W87eGvVOOi-73">
          <mxGeometry x="300" width="60" height="40" as="geometry" />
        </mxCell>
        <mxCell id="2cDkV1y1r-W87eGvVOOi-150" value="" style="endArrow=classic;startArrow=classic;html=1;fontFamily=Verdana;fontSize=35;fontColor=#CC0000;entryX=0.134;entryY=1.015;entryDx=0;entryDy=0;entryPerimeter=0;horizontal=1;" edge="1" parent="1" target="2cDkV1y1r-W87eGvVOOi-52">
          <mxGeometry width="50" height="50" relative="1" as="geometry">
            <mxPoint x="574" y="430" as="sourcePoint" />
            <mxPoint x="564" y="370" as="targetPoint" />
          </mxGeometry>
        </mxCell>
        <mxCell id="2cDkV1y1r-W87eGvVOOi-152" value="" style="endArrow=classic;startArrow=classic;html=1;fontFamily=Verdana;fontSize=35;fontColor=#CC0000;entryX=0.134;entryY=1.015;entryDx=0;entryDy=0;entryPerimeter=0;horizontal=1;" edge="1" parent="1">
          <mxGeometry width="50" height="50" relative="1" as="geometry">
            <mxPoint x="634.18" y="428.35" as="sourcePoint" />
            <mxPoint x="561.9999999999997" y="340.0000000000001" as="targetPoint" />
          </mxGeometry>
        </mxCell>
        <mxCell id="2cDkV1y1r-W87eGvVOOi-153" value="" style="endArrow=classic;startArrow=classic;html=1;fontFamily=Verdana;fontSize=35;fontColor=#CC0000;entryX=0.134;entryY=1.015;entryDx=0;entryDy=0;entryPerimeter=0;horizontal=1;" edge="1" parent="1">
          <mxGeometry width="50" height="50" relative="1" as="geometry">
            <mxPoint x="696.1799999999998" y="428.35000000000014" as="sourcePoint" />
            <mxPoint x="623.9999999999995" y="340" as="targetPoint" />
          </mxGeometry>
        </mxCell>
        <mxCell id="2cDkV1y1r-W87eGvVOOi-154" value="&lt;font color=&quot;#000000&quot;&gt;...&lt;/font&gt;" style="text;strokeColor=none;fillColor=none;html=1;fontSize=24;fontStyle=1;verticalAlign=middle;align=center;rounded=0;glass=0;fontFamily=Verdana;fontColor=#CC0000;" vertex="1" parent="1">
          <mxGeometry x="709" y="350" width="100" height="40" as="geometry" />
        </mxCell>
        <mxCell id="2cDkV1y1r-W87eGvVOOi-155" value="Shaders" style="text;html=1;strokeColor=none;fillColor=none;align=center;verticalAlign=middle;whiteSpace=wrap;rounded=0;fontSize=35;fontFamily=Verdana;fontColor=#CC0000;" vertex="1" parent="1">
          <mxGeometry x="179" y="450" width="40" height="20" as="geometry" />
        </mxCell>
        <mxCell id="2cDkV1y1r-W87eGvVOOi-156" value="" style="endArrow=classic;html=1;fontFamily=Verdana;fontSize=35;fontColor=#CC0000;" edge="1" parent="1">
          <mxGeometry width="50" height="50" relative="1" as="geometry">
            <mxPoint x="930" y="690" as="sourcePoint" />
            <mxPoint x="930" y="400" as="targetPoint" />
          </mxGeometry>
        </mxCell>
        <mxCell id="2cDkV1y1r-W87eGvVOOi-157" value="" style="endArrow=classic;html=1;fontFamily=Verdana;fontSize=35;fontColor=#CC0000;" edge="1" parent="1">
          <mxGeometry width="50" height="50" relative="1" as="geometry">
            <mxPoint x="930" y="690" as="sourcePoint" />
            <mxPoint x="500" y="690" as="targetPoint" />
          </mxGeometry>
        </mxCell>
        <mxCell id="2cDkV1y1r-W87eGvVOOi-158" value="" style="endArrow=classic;html=1;fontFamily=Verdana;fontSize=35;fontColor=#CC0000;" edge="1" parent="1">
          <mxGeometry width="50" height="50" relative="1" as="geometry">
            <mxPoint x="930" y="690" as="sourcePoint" />
            <mxPoint x="960" y="650" as="targetPoint" />
          </mxGeometry>
        </mxCell>
        <mxCell id="2cDkV1y1r-W87eGvVOOi-160" value="&lt;font color=&quot;#000000&quot; style=&quot;font-size: 25px&quot;&gt;x&lt;/font&gt;" style="text;html=1;strokeColor=none;fillColor=none;align=center;verticalAlign=middle;whiteSpace=wrap;rounded=0;glass=0;fontFamily=Verdana;fontSize=35;fontColor=#CC0000;" vertex="1" parent="1">
          <mxGeometry x="454" y="700" width="40" height="20" as="geometry" />
        </mxCell>
        <mxCell id="2cDkV1y1r-W87eGvVOOi-161" value="&lt;font color=&quot;#000000&quot; style=&quot;font-size: 25px&quot;&gt;y&lt;/font&gt;" style="text;html=1;strokeColor=none;fillColor=none;align=center;verticalAlign=middle;whiteSpace=wrap;rounded=0;glass=0;fontFamily=Verdana;fontSize=35;fontColor=#CC0000;" vertex="1" parent="1">
          <mxGeometry x="929" y="380" width="40" height="20" as="geometry" />
        </mxCell>
        <mxCell id="2cDkV1y1r-W87eGvVOOi-162" value="&lt;font color=&quot;#000000&quot; style=&quot;font-size: 25px&quot;&gt;z&lt;/font&gt;" style="text;html=1;strokeColor=none;fillColor=none;align=center;verticalAlign=middle;whiteSpace=wrap;rounded=0;glass=0;fontFamily=Verdana;fontSize=35;fontColor=#CC0000;" vertex="1" parent="1">
          <mxGeometry x="960" y="650" width="40" height="20" as="geometry" />
        </mxCell>
      </root>
    </mxGraphModel>
  </diagram>
</mxfile>
